HIERARCHY
ROOT Hips
{
	OFFSET 0.00000 0.00000 0.00000
	CHANNELS 6 Xposition Yposition Zposition Zrotation Yrotation Xrotation 
	JOINT LHipJoint
	{
		OFFSET 0 0 0
		CHANNELS 3 Zrotation Yrotation Xrotation
		JOINT LeftHip
		{
			OFFSET 1.56857 -1.73443 1.15205
			CHANNELS 3 Zrotation Yrotation Xrotation
			JOINT LeftKnee
			{
				OFFSET 2.39362 -6.57643 0.00000
				CHANNELS 3 Zrotation Yrotation Xrotation
				JOINT LeftAnkle
				{
					OFFSET 2.50952 -6.89485 0.00000
					CHANNELS 3 Zrotation Yrotation Xrotation
					JOINT LeftToe
					{
						OFFSET 0.17171 -0.47178 1.88682
						CHANNELS 3 Zrotation Yrotation Xrotation
						End Site
						{
							OFFSET 0.00000 -0.00000 0.98146
						}
					}
				}
			}
		}
	}
	JOINT RHipJoint
	{
		OFFSET 0 0 0
		CHANNELS 3 Zrotation Yrotation Xrotation
		JOINT RightHip
		{
			OFFSET -1.28153 -1.73443 1.15205
			CHANNELS 3 Zrotation Yrotation Xrotation
			JOINT RightKnee
			{
				OFFSET -2.26861 -6.23296 0.00000
				CHANNELS 3 Zrotation Yrotation Xrotation
				JOINT RightAnkle
				{
					OFFSET -2.54143 -6.98254 0.00000
					CHANNELS 3 Zrotation Yrotation Xrotation
					JOINT RightToe
					{
						OFFSET -0.23309 -0.64041 1.93119
						CHANNELS 3 Zrotation Yrotation Xrotation
						End Site
						{
							OFFSET -0.00000 -0.00000 1.02013
						}
					}
				}
			}
		}
	}
	JOINT lowerback
	{
		OFFSET 0 0 0
		CHANNELS 3 Zrotation Yrotation Xrotation
		JOINT Chest
		{
			OFFSET -0.07096 2.10460 -0.27878
			CHANNELS 3 Zrotation Yrotation Xrotation
			JOINT Chest2
			{
				OFFSET -0.00826 2.13662 -0.08279
				CHANNELS 3 Zrotation Yrotation Xrotation
				JOINT lowerneck
				{
					OFFSET 0 0 0
					CHANNELS 3 Zrotation Yrotation Xrotation
					JOINT Neck
					{
						OFFSET 0.03239 1.77799 0.24435
						CHANNELS 3 Zrotation Yrotation Xrotation
						JOINT Head
						{
							OFFSET 0.01026 1.74194 -0.49664
							CHANNELS 3 Zrotation Yrotation Xrotation
							End Site
							{
								OFFSET 0.00170 1.83057 -0.19653
							}
						}
					}
				}
				JOINT LeftCollar
				{
					OFFSET 0 0 0
					CHANNELS 3 Zrotation Yrotation Xrotation
					JOINT LeftShoulder
					{
						OFFSET 3.19178 1.35907 -0.31412
CHANNELS 3 Zrotation Xrotation Yrotation
						JOINT LeftElbow
						{
OFFSET 0 -4.852470 -0.000000
CHANNELS 3 Zrotation Xrotation Yrotation
							JOINT LeftWrist
							{
OFFSET 0 -3.555840 0.000000
CHANNELS 3 Zrotation Xrotation Yrotation
								JOINT lhand
								{
									OFFSET 0 0 0
CHANNELS 3 Zrotation Xrotation Yrotation
									JOINT LFingers
									{
OFFSET 0 -0.693200 0.000000
CHANNELS 3 Zrotation Xrotation Yrotation
										End Site
										{
OFFSET 0 -0.558880 0.000000
										}
									}
								}
								JOINT LThumb
								{
OFFSET 0 0.000000 0.000000
CHANNELS 3 Zrotation Xrotation Yrotation
									End Site
									{
OFFSET 0 -0.567410 0.567410
									}
								}
							}
						}
					}
				}
				JOINT RightCollar
				{
					OFFSET 0 0 0
					CHANNELS 3 Zrotation Yrotation Xrotation
					JOINT RightShoulder
					{
						OFFSET -3.28999 1.24191 -0.26899
CHANNELS 3 Zrotation Xrotation Yrotation
						JOINT RightElbow
						{
OFFSET 0 -4.644620 0.000000
CHANNELS 3 Zrotation Xrotation Yrotation
							JOINT RightWrist
							{
OFFSET 0 -3.407030 0.000000
CHANNELS 3 Zrotation Xrotation Yrotation
								JOINT rhand
								{
									OFFSET 0 0 0
CHANNELS 3 Zrotation Xrotation Yrotation
									JOINT RFingers
									{
OFFSET 0 -0.619580 0.000000
CHANNELS 3 Zrotation Xrotation Yrotation
										End Site
										{
OFFSET 0 -0.499520 0.000000
										}
									}
								}
								JOINT RThumb
								{
OFFSET 0 0.000000 0.000000
CHANNELS 3 Zrotation Xrotation Yrotation
									End Site
									{
OFFSET 0 -0.507150 0.507150
									}
								}
							}
						}
					}
				}
			}
		}
	}
}
MOTION
Frames: 13
Frame Time: 0.008333333333333333
-29.302900 17.118800 1.240200 22.943400 85.600500 22.195600 0.000000 0.000000 0.000000 -16.731300 3.388200 11.869100 0.016700 -0.833400 -2.290400 0.278500 7.979500 -15.902300 0.022800 -0.975900 -2.682400 0.000000 0.000000 0.000000 11.257400 -7.140400 6.308100 -0.023400 -0.988400 2.717000 -0.747600 2.614600 -15.657800 -0.001100 -0.217000 0.596100 -3.453500 2.110300 5.678700 -1.090600 2.542300 -0.656900 0.576700 1.330300 -3.965400 4.902700 2.587200 -21.298700 -1.157300 2.384100 21.139000 -0.856900 1.394300 10.367200 0.000000 -0.000000 0.000000 3.439400 2.943300 -39.625200 12.458700 -20.489000 2.260300 12.075400 6.867700 23.914500 0.000000 0.000000 0.000000 -7.125000 0.000000 0.000000 -10.600200 5.934100 -9.617500 0.000000 -0.000000 0.000000 -90.000000 0.000000 -0.000000 0.000000 0.000000 -0.000000 0.000000 0.000000 -0.000000 0.000000 0.000000 0.000000 0.000000 -0.000000 0.000000 0.000000 0.000000 0.000000
-29.303454 17.112184 1.241514 25.089678 85.436666 24.356146 0.000000 0.000000 0.000000 -16.759541 4.061356 11.479244 0.013970 -0.763895 -2.099264 0.239233 7.738595 -15.109460 0.088494 -1.911232 -5.260468 0.000000 0.000000 0.000000 11.067238 -6.831568 6.326939 -0.024486 -1.010665 2.778180 -0.765856 2.564499 -15.863752 -0.000256 -0.090712 0.249287 -3.801673 2.115239 5.710740 -1.075551 2.523449 -0.674351 0.786179 1.329700 -4.017349 4.868292 2.645332 -21.329227 -1.184837 2.482593 21.181246 -0.845744 1.433562 10.391148 0.000000 0.000000 0.000000 3.295195 2.968563 -39.354816 12.413950 -20.422541 2.244626 12.506924 6.684933 24.125129 0.000000 0.000000 0.000000 -7.125000 0.000000 0.000000 -10.343491 5.672740 -9.428905 0.000000 0.000000 0.000000 -90.000000 0.000000 0.000000 0.000000 0.000000 0.000000 0.000000 0.000000 0.000000 0.000000 0.000000 0.000000 0.000000 0.000000 0.000000 0.000000 0.000000 0.000000
-29.297010 17.113757 1.240570 25.810646 85.377202 24.946635 0.000000 0.000000 0.000000 -16.924631 3.975216 11.790468 0.016723 -0.834431 -2.293379 0.249355 7.856356 -15.375523 0.060582 -1.578503 -4.342338 0.000000 0.000000 0.000000 10.935998 -6.894232 6.547138 -0.022556 -0.969318 2.664418 -0.755134 2.583450 -15.744633 -0.000372 -0.128080 0.351862 -3.942789 2.124515 5.742592 -1.032471 2.527838 -0.610449 0.909437 1.334158 -3.977522 5.063588 2.648238 -21.317671 -1.548680 2.513998 21.148498 -1.003483 1.417966 10.385658 0.000000 0.000000 0.000000 3.172526 2.918088 -39.215917 12.242221 -20.166776 2.185171 13.306019 6.993666 24.310597 0.000000 0.000000 0.000000 -7.125000 0.000000 0.000000 -9.861997 5.387180 -9.029106 0.000000 0.000000 0.000000 -90.000000 0.000000 0.000000 0.000000 0.000000 0.000000 0.000000 0.000000 0.000000 0.000000 0.000000 0.000000 0.000000 0.000000 0.000000 0.000000 0.000000 0.000000
-29.297826 17.109341 1.242780 26.698860 85.271281 25.886291 0.000000 0.000000 0.000000 -17.063747 3.896232 11.761403 0.017126 -0.846029 -2.325288 0.253335 7.956334 -15.535963 0.035881 -1.222081 -3.360073 0.000000 0.000000 0.000000 10.930496 -6.455203 6.639356 -0.021568 -0.948302 2.606565 -0.761532 2.303808 -15.866143 -0.001721 -0.264406 0.726464 -3.937316 2.196914 5.674912 -1.170877 2.624995 -0.601839 0.757001 1.380807 -3.928145 5.156499 2.599788 -21.316652 -1.504949 2.401402 21.042179 -1.020230 1.377600 10.343884 0.000000 0.000000 0.000000 3.421418 2.919538 -39.618878 12.026171 -19.843028 2.111737 15.728500 6.875215 24.554282 0.000000 0.000000 0.000000 -7.125000 0.000000 0.000000 -8.399592 4.804016 -7.733445 0.000000 0.000000 0.000000 -1.047195 5.489503 38.173645 -15.798466 -25.246614 -3.559603 -12.092493 11.556052 31.376836 0.000000 0.000000 0.000000 7.125000 0.000000 0.000000 22.825168 60.461796 -8.875962
-29.299029 17.109412 1.243620 27.794905 85.378387 26.938638 0.000000 0.000000 0.000000 -17.049388 3.895448 11.735774 0.015573 -0.806277 -2.215955 0.270428 7.773899 -15.580920 0.036085 -1.220268 -3.355115 0.000000 0.000000 0.000000 10.871559 -6.544075 6.733201 -0.020337 -0.920543 2.530147 -0.762105 2.188866 -15.895497 -0.000773 -0.160318 0.440636 -3.891691 2.169900 5.725494 -1.218902 2.588960 -0.584913 0.683914 1.361538 -3.933131 5.250206 2.576915 -21.193998 -1.592963 2.365977 20.908708 -1.073425 1.356888 10.274131 0.000000 0.000000 0.000000 3.446373 2.818873 -39.636592 12.344825 -20.319729 2.220553 12.994268 6.586366 23.417278 0.000000 0.000000 0.000000 -7.125000 0.000000 0.000000 -10.012850 6.319405 -8.991673 0.000000 0.000000 0.000000 -0.989911 5.495006 38.062133 -15.781497 -25.223434 -3.552293 -11.735800 11.641285 31.723347 0.000000 0.000000 0.000000 7.125000 0.000000 0.000000 23.493784 60.691707 -9.283048
-29.297938 17.109361 1.244565 28.042322 85.442342 27.148441 0.000000 0.000000 0.000000 -17.052804 3.808570 11.818510 0.015888 -0.813629 -2.236088 0.265173 7.804088 -15.539540 0.044368 -1.346740 -3.703641 0.000000 0.000000 0.000000 10.911182 -6.513411 6.831823 -0.019590 -0.902911 2.481736 -0.770678 2.019935 -16.023804 -0.000239 -0.082981 0.228094 -4.211170 2.092123 6.068296 -0.980513 2.442652 -0.819731 1.104469 1.308063 -4.389990 5.164414 2.666538 -21.063790 -1.694508 2.564303 21.172779 -1.066534 1.434917 10.353131 0.000000 0.000000 0.000000 3.119131 3.369035 -39.377347 12.110051 -19.968970 2.140053 15.453611 6.718540 24.363750 0.000000 0.000000 0.000000 -7.125000 0.000000 0.000000 -8.553150 5.036824 -7.844832 0.000000 0.000000 0.000000 -1.405589 5.907778 38.449868 -15.835452 -25.296977 -3.575368 -11.702618 11.368359 31.818638 0.000000 0.000000 0.000000 7.125000 0.000000 0.000000 23.610144 60.770173 -9.375766
-29.296139 17.110394 1.244439 28.207076 85.492059 27.256777 0.000000 0.000000 0.000000 -17.050000 3.759462 11.921447 0.016422 -0.828167 -2.276273 0.250912 7.869430 -15.411608 0.054257 -1.502714 -4.133270 0.000000 0.000000 0.000000 11.017970 -6.276870 7.021483 -0.018779 -0.885335 2.433313 -0.788610 1.873751 -16.248086 -0.000773 -0.176578 0.485091 -4.584532 1.977726 6.753702 -0.728472 2.215036 -1.326652 1.561691 1.228158 -5.322168 5.261035 2.789275 -20.552344 -1.937719 2.816553 21.472726 -1.134893 1.540229 10.381714 0.000000 0.000000 0.000000 2.677956 4.352030 -38.465756 11.791391 -19.491121 2.032169 18.098913 7.519272 25.394104 0.000000 0.000000 0.000000 -7.125000 0.000000 0.000000 -7.005353 3.611919 -6.600483 0.000000 0.000000 0.000000 -1.858581 6.772722 38.962830 -15.897637 -25.381581 -3.601939 -11.609621 10.958088 31.577291 0.000000 0.000000 0.000000 7.125000 0.000000 0.000000 23.499816 60.529490 -9.193551
-29.292082 17.111082 1.245709 28.529369 85.385035 27.621913 0.000000 0.000000 0.000000 -17.107280 3.857356 11.888074 0.016894 -0.839957 -2.308505 0.273728 7.748473 -15.598749 0.033431 -1.180495 -3.245482 0.000000 0.000000 0.000000 10.865606 -6.477476 6.879438 -0.019520 -0.902174 2.479800 -0.778270 2.131162 -16.081563 -0.001161 -0.216239 0.594026 -4.582299 2.013365 6.628394 -0.820704 2.266700 -1.317930 1.462767 1.251136 -5.241149 5.165428 2.782469 -20.447722 -1.677545 2.773821 21.320799 -1.033581 1.543348 10.300466 0.000000 0.000000 0.000000 2.786748 4.268100 -38.448896 11.762793 -19.447934 2.022599 18.176724 7.455757 25.543925 0.000000 0.000000 0.000000 -7.125000 0.000000 0.000000 -6.971054 3.446860 -6.589078 0.000000 0.000000 0.000000 -1.759651 6.798536 39.005243 -15.920361 -25.412581 -3.611726 -11.687814 10.997018 31.315648 0.000000 0.000000 0.000000 7.125000 0.000000 0.000000 23.197235 60.310526 -8.945760
-29.289607 17.110100 1.246376 26.943279 85.385666 26.051018 0.000000 0.000000 0.000000 -16.954564 3.931802 11.880228 0.016776 -0.837042 -2.300572 0.274045 7.730771 -15.585300 0.037133 -1.241290 -3.413115 0.000000 0.000000 0.000000 10.942622 -6.618765 6.790350 -0.020337 -0.920738 2.530859 -0.767963 2.290668 -15.938309 -0.004576 -0.436723 1.200010 -4.516862 2.037673 6.596250 -0.750206 2.308930 -1.324988 1.495673 1.270768 -5.233043 5.097672 2.762812 -20.476372 -1.649033 2.759427 21.342697 -1.014190 1.534673 10.311464 0.000000 0.000000 0.000000 2.764010 4.248350 -38.600047 11.721325 -19.385350 2.008783 18.221898 7.388334 25.495730 0.000000 0.000000 0.000000 -7.125000 0.000000 0.000000 -6.939472 3.488782 -6.553328 0.000000 0.000000 0.000000 -1.819672 6.807631 38.930584 -15.899276 -25.383970 -3.602650 -11.821120 11.030868 31.288759 0.000000 0.000000 0.000000 7.125000 0.000000 0.000000 23.035521 60.317502 -8.883236
-29.288848 17.109224 1.246348 26.739787 85.405802 25.816130 0.000000 0.000000 0.000000 -16.942584 3.907475 11.982626 0.018433 -0.876774 -2.409755 0.229808 8.035586 -15.292608 0.088797 -1.919980 -5.284551 0.000000 0.000000 0.000000 10.973936 -6.626882 6.884532 -0.019005 -0.889495 2.444877 -0.765045 2.160954 -15.933236 -0.000524 -0.093446 0.256798 -4.473927 2.037183 6.637620 -0.749990 2.309520 -1.324022 1.470500 1.269977 -5.253738 5.179628 2.709101 -20.389698 -1.748204 2.684859 21.218136 -1.075098 1.493733 10.250311 0.000000 0.000000 0.000000 2.809400 4.307313 -38.731133 11.786105 -19.483057 2.030352 18.117601 7.388238 25.349143 0.000000 0.000000 0.000000 -7.125000 0.000000 0.000000 -6.990117 3.654808 -6.580300 0.000000 0.000000 0.000000 -1.787579 6.814010 38.778894 -15.870965 -25.345349 -3.590520 -11.691350 11.221296 31.495392 0.000000 0.000000 0.000000 7.125000 0.000000 0.000000 23.345010 60.474519 -9.098493
-29.288700 17.109815 1.247179 26.798042 85.410798 25.897320 0.000000 0.000000 0.000000 -16.945860 3.834623 11.968397 0.017944 -0.865330 -2.378488 0.247914 7.956932 -15.461527 0.060488 -1.581122 -4.349395 0.000000 0.000000 0.000000 11.020352 -6.515966 6.899946 -0.018601 -0.879689 2.417820 -0.765620 2.100842 -15.952028 -0.000200 0.086736 -0.238368 -4.448492 2.052092 6.583552 -0.761337 2.335421 -1.278297 1.444466 1.279984 -5.174961 5.077000 2.717996 -20.572222 -1.617844 2.686212 21.292793 -1.009949 1.501054 10.307665 0.000000 0.000000 0.000000 2.755169 4.130481 -38.492464 11.701599 -19.355570 2.002273 17.891645 7.740840 25.463181 0.000000 0.000000 0.000000 -7.125000 0.000000 0.000000 -7.137234 3.574502 -6.731744 0.000000 0.000000 0.000000 -1.753476 6.651521 38.492980 -15.787338 -25.231447 -3.554853 -11.338463 11.235850 31.285090 0.000000 0.000000 0.000000 7.125000 0.000000 0.000000 23.537065 60.200452 -9.024070
-29.287468 17.110160 1.247620 26.988679 85.443811 26.152251 0.000000 0.000000 0.000000 -16.913735 3.884996 11.805964 0.016126 -0.819587 -2.252618 0.260211 7.781553 -15.448390 0.058257 -1.556200 -4.280584 0.000000 0.000000 0.000000 11.026174 -6.548667 6.854554 -0.017463 -0.853030 2.344484 -0.761192 2.098989 -15.905094 -0.000549 -0.112422 0.308823 -4.433251 2.021610 6.501458 -0.775274 2.300447 -1.266599 1.428710 1.260986 -5.112760 5.163891 2.742079 -20.524974 -1.715198 2.715345 21.164464 -1.055207 1.507669 10.256368 0.000000 0.000000 0.000000 2.794687 4.098632 -38.580396 11.711898 -19.371203 2.005705 17.971734 7.595383 25.471065 0.000000 0.000000 0.000000 -7.125000 0.000000 0.000000 -7.089343 3.553755 -6.688549 0.000000 0.000000 0.000000 -1.775794 6.587396 38.720435 -15.849249 -25.315858 -3.581239 -11.558708 11.095772 31.287318 0.000000 0.000000 0.000000 7.125000 0.000000 0.000000 23.308765 60.254375 -8.960315
-29.285310 17.110249 1.248832 28.460523 85.435024 27.535192 0.000000 0.000000 0.000000 -16.983127 4.065781 11.793256 0.015468 -0.803812 -2.209189 0.258935 7.644415 -15.288534 0.062029 -1.606795 -4.420081 0.000000 0.000000 0.000000 10.961942 -6.355203 7.065465 -0.017359 -0.851131 2.339367 -0.777970 1.917709 -16.124331 -0.000783 -0.159773 0.439045 -4.559547 2.006188 6.567684 -0.783970 2.266523 -1.235482 1.492399 1.247592 -5.120653 5.142293 2.759320 -20.533707 -1.692085 2.739640 21.160706 -1.039646 1.519750 10.256931 0.000000 0.000000 0.000000 2.749232 4.031223 -38.400359 11.685179 -19.330785 1.996907 17.885536 7.715727 25.514743 0.000000 0.000000 0.000000 -7.125000 0.000000 0.000000 -7.145393 3.522931 -6.746390 0.000000 0.000000 0.000000 -1.817811 6.626225 38.727688 -15.853861 -25.322019 -3.583258 -11.576586 11.163105 31.261571 0.000000 0.000000 0.000000 7.125000 0.000000 0.000000 23.268168 60.235156 -8.932917
